<svg xmlns="http://www.w3.org/2000/svg" version="1.1" xmlns:xlink="http://www.w3.org/1999/xlink" xmlns:svgjs="http://svgjs.com/svgjs" width="1920" height="1080" preserveAspectRatio="none" viewBox="0 0 1920 1080"><g mask="url(&quot;#SvgjsMask1015&quot;)" fill="none"><rect width="1920" height="1080" x="0" y="0" fill="rgba(240, 240, 240, 1)"></rect><path d="M0,831.575C154.926,818.106,223.356,628.791,333.638,519.15C418.471,434.811,524.466,371.017,573.157,261.752C621.61,153.022,620.578,31.036,603.661,-86.793C586.741,-204.64,554.931,-323.323,476.319,-412.733C397.985,-501.826,278.783,-531.895,170.232,-579.755C44.548,-635.169,-75.688,-743.903,-210.045,-715.349C-344.823,-686.705,-426.39,-550.527,-503.765,-436.515C-574.269,-332.627,-613.455,-215.023,-633.69,-91.111C-654.258,34.837,-667.545,164.802,-621.392,283.78C-573.779,406.521,-471.882,493.535,-373.126,580.595C-258.361,681.767,-152.418,844.826,0,831.575" fill="#e4e4e4"></path><path d="M1920 1681.012C2045.126 1664.847 2173.835 1704.989 2289.965 1655.6770000000001 2418.001 1601.309 2538.311 1515.126 2601.951 1391.437 2666.79 1265.4180000000001 2687.385 1109.912 2639.379 976.569 2593.899 850.242 2430.034 814.5360000000001 2354.335 703.646 2263.135 570.049 2297.384 352.21299999999997 2157.598 270.81600000000003 2021.413 191.51700000000005 1845.501 267.861 1697.125 320.957 1555.077 371.788 1427.254 453.404 1328.5349999999999 567.492 1229.863 681.525 1148.721 817.126 1137.661 967.517 1126.923 1113.528 1210.484 1243.099 1268.981 1377.31 1328.579 1514.048 1347.8609999999999 1696.866 1483.038 1759.926 1619.944 1823.7930000000001 1770.175 1700.368 1920 1681.012" fill="#fcfcfc"></path></g><defs><mask id="SvgjsMask1015"><rect width="1920" height="1080" fill="#ffffff"></rect></mask></defs></svg>